<?xml version="1.0" encoding="UTF-8"?>
<svg width="100px" height="200px" viewBox="0 0 100 200" version="1.1" xmlns="http://www.w3.org/2000/svg" xmlns:xlink="http://www.w3.org/1999/xlink">
    <title>laravel-logo</title>
    <g id="laravel-logo" stroke="none" stroke-width="1" fill="none" fill-rule="evenodd">
        <g id="dark" transform="translate(0.000000, 100.000000)">
            <rect id="Rectangle" fill-opacity="0" fill="#000000" x="0" y="0" width="100" height="100"></rect>
            <path d="M84.9605268,30.3022312 C84.9864827,30.3983014 85,30.4973556 85,30.5968701 L85,46.0647075 C85,46.4688101 84.7838228,46.8420368 84.4332783,47.0430778 L71.4508398,54.5176015 L71.4508398,69.3327222 C71.4508398,69.7359122 71.236557,70.1080877 70.8869376,70.3110925 L43.7872075,85.9114469 C43.7251782,85.9466908 43.65751,85.9692469 43.5898417,85.9932128 C43.5644661,86.0016713 43.5405003,86.0171786 43.5137149,86.0242274 C43.3242776,86.0741139 43.1251525,86.0741139 42.9357151,86.0242274 C42.9047005,86.0157688 42.8765054,85.9988518 42.8469006,85.9875737 C42.7848713,85.9650177 42.7200226,85.9452811 42.6608128,85.9114469 L15.5667217,70.3110925 C15.2163907,70.1098371 15,69.7367462 15,69.3327222 L15,22.9292099 C15,22.8277075 15.0140976,22.7290246 15.0394732,22.6331612 C15.0479317,22.6007368 15.0676683,22.571132 15.0789463,22.5387076 C15.1000926,22.4794979 15.1198292,22.4188784 15.1508438,22.3638979 C15.1719902,22.3272443 15.2030048,22.2976394 15.2283804,22.2638053 C15.2608048,22.2186931 15.2904096,22.1721712 15.328473,22.132698 C15.3608974,22.1002736 15.4031901,22.0763078 15.4398437,22.0481127 C15.4807266,22.0142785 15.5173803,21.9776249 15.5639022,21.9508395 L15.565312,21.9508395 L29.1130624,14.1506623 C29.4621614,13.9497792 29.8917678,13.9497792 30.2408668,14.1506623 L43.7886172,21.9508395 L43.7914367,21.9508395 C43.8365489,21.9790346 43.8746123,22.0142785 43.9154952,22.0467029 C43.9521489,22.074898 43.9930318,22.1002736 44.0254562,22.1312882 C44.0649293,22.1721712 44.0931244,22.2186931 44.1269586,22.2638053 C44.1509244,22.2976394 44.1833488,22.3272443 44.2030854,22.3638979 C44.2355097,22.4202881 44.2538365,22.4794979 44.2763926,22.5387076 C44.2876707,22.571132 44.3074073,22.6007368 44.3158658,22.634571 C44.3418217,22.7306412 44.3550921,22.8296954 44.3553389,22.9292099 L44.3553389,51.9123734 L55.6446611,45.4119907 L55.6446611,30.5954603 C55.6446611,30.4967774 55.6587586,30.3966848 55.6841342,30.3022312 C55.6940025,30.268397 55.7123293,30.2387922 55.7236074,30.2063678 C55.7461635,30.1471581 55.7659,30.0865386 55.7969146,30.0315581 C55.818061,29.9949045 55.8490756,29.9652996 55.8730414,29.9314655 C55.9068756,29.8863533 55.9350707,29.8398314 55.9745438,29.8003582 C56.0069682,29.7679338 56.0478511,29.743968 56.0845048,29.7157729 C56.1267974,29.6819387 56.1634511,29.6452851 56.2085633,29.6184997 L56.209973,29.6184997 L69.7591332,21.8183225 C70.1081548,21.61715 70.537916,21.61715 70.8869376,21.8183225 L84.434688,29.6184997 C84.4826197,29.6466949 84.5192734,29.6819387 84.561566,29.7143631 C84.5968099,29.7425582 84.6376928,29.7679338 84.6701172,29.7989485 C84.7095904,29.8398314 84.7377855,29.8863533 84.7716196,29.9314655 C84.7969952,29.9652996 84.8280098,29.9949045 84.8477464,30.0315581 C84.8801708,30.0865386 84.8984976,30.1471581 84.9210537,30.2063678 C84.9337415,30.2387922 84.9520683,30.268397 84.9605268,30.3022312 Z M82.7415717,45.4119907 L82.7415717,32.5493814 L78.0005639,35.2786681 L71.4508398,39.0497641 L71.4508398,51.9123734 L82.7429814,45.4119907 L82.7415717,45.4119907 Z M69.1938212,68.6800054 L69.1938212,55.8089376 L62.7512386,59.4883995 L44.3539292,69.9882585 L44.3539292,82.9805652 L69.1938212,68.6800054 Z M17.2584283,24.8817212 L17.2584283,68.6800054 L42.0955009,82.9791555 L42.0955009,69.9896682 L29.1201112,62.6462518 L29.1158819,62.6434323 L29.1102429,62.6406128 C29.0665405,62.6152372 29.0298868,62.5785835 28.9890039,62.5475689 C28.95376,62.5193738 28.9128771,62.4968177 28.8818625,62.4658031 L28.879043,62.4615738 C28.8423893,62.4263299 28.8170137,62.3826275 28.7859991,62.3431544 C28.757804,62.305091 28.7239699,62.2726666 28.7014138,62.2331934 L28.700004,62.2289642 C28.6746284,62.1866715 28.6591211,62.1359203 28.6407943,62.0879886 C28.6224675,62.0456959 28.5985016,62.0062228 28.5872236,61.9611106 L28.5872236,61.9597009 C28.573126,61.9061301 28.5703065,61.8497399 28.5646675,61.7947595 C28.5590285,61.7524668 28.5477504,61.7101741 28.5477504,61.6678815 L28.5477504,61.665062 L28.5477504,31.3821039 L21.9994361,27.6095981 L17.2584283,24.883131 L17.2584283,24.8817212 Z M29.6783744,16.4316467 L18.390462,22.9292099 L29.6755548,29.426773 L40.9620574,22.9278001 L29.6755548,16.4316467 L29.6783744,16.4316467 Z M35.5485963,56.9818542 L42.0969106,53.2121679 L42.0969106,24.8817212 L37.3559028,27.6110079 L30.8061788,31.3821039 L30.8061788,59.7125506 L35.5485963,56.9818542 Z M70.3230354,24.0993069 L59.0365328,30.5968701 L70.3230354,37.0944332 L81.6081282,30.5954603 L70.3230354,24.0993069 Z M69.1938212,39.0497641 L62.6440972,35.2786681 L57.9030894,32.5493814 L57.9030894,45.4119907 L64.4514037,49.1816769 L69.1938212,51.9123734 L69.1938212,39.0497641 Z M43.2233053,68.0357471 L59.7780642,58.5847462 L68.053329,53.8620652 L56.775285,47.3687313 L43.790027,54.8446648 L31.9551295,61.6580132 L43.2233053,68.0357471 Z" id="Shape" fill="#222222"></path>
        </g>
        <g id="light">
            <rect id="Rectangle" fill-opacity="0" fill="#000000" x="0" y="0" width="100" height="100"></rect>
            <path d="M84.9605268,30.3022312 C84.9864827,30.3983014 85,30.4973556 85,30.5968701 L85,46.0647075 C85,46.4688101 84.7838228,46.8420368 84.4332783,47.0430778 L71.4508398,54.5176015 L71.4508398,69.3327222 C71.4508398,69.7359122 71.236557,70.1080877 70.8869376,70.3110925 L43.7872075,85.9114469 C43.7251782,85.9466908 43.65751,85.9692469 43.5898417,85.9932128 C43.5644661,86.0016713 43.5405003,86.0171786 43.5137149,86.0242274 C43.3242776,86.0741139 43.1251525,86.0741139 42.9357151,86.0242274 C42.9047005,86.0157688 42.8765054,85.9988518 42.8469006,85.9875737 C42.7848713,85.9650177 42.7200226,85.9452811 42.6608128,85.9114469 L15.5667217,70.3110925 C15.2163907,70.1098371 15,69.7367462 15,69.3327222 L15,22.9292099 C15,22.8277075 15.0140976,22.7290246 15.0394732,22.6331612 C15.0479317,22.6007368 15.0676683,22.571132 15.0789463,22.5387076 C15.1000926,22.4794979 15.1198292,22.4188784 15.1508438,22.3638979 C15.1719902,22.3272443 15.2030048,22.2976394 15.2283804,22.2638053 C15.2608048,22.2186931 15.2904096,22.1721712 15.328473,22.132698 C15.3608974,22.1002736 15.4031901,22.0763078 15.4398437,22.0481127 C15.4807266,22.0142785 15.5173803,21.9776249 15.5639022,21.9508395 L15.565312,21.9508395 L29.1130624,14.1506623 C29.4621614,13.9497792 29.8917678,13.9497792 30.2408668,14.1506623 L43.7886172,21.9508395 L43.7914367,21.9508395 C43.8365489,21.9790346 43.8746123,22.0142785 43.9154952,22.0467029 C43.9521489,22.074898 43.9930318,22.1002736 44.0254562,22.1312882 C44.0649293,22.1721712 44.0931244,22.2186931 44.1269586,22.2638053 C44.1509244,22.2976394 44.1833488,22.3272443 44.2030854,22.3638979 C44.2355097,22.4202881 44.2538365,22.4794979 44.2763926,22.5387076 C44.2876707,22.571132 44.3074073,22.6007368 44.3158658,22.634571 C44.3418217,22.7306412 44.3550921,22.8296954 44.3553389,22.9292099 L44.3553389,51.9123734 L55.6446611,45.4119907 L55.6446611,30.5954603 C55.6446611,30.4967774 55.6587586,30.3966848 55.6841342,30.3022312 C55.6940025,30.268397 55.7123293,30.2387922 55.7236074,30.2063678 C55.7461635,30.1471581 55.7659,30.0865386 55.7969146,30.0315581 C55.818061,29.9949045 55.8490756,29.9652996 55.8730414,29.9314655 C55.9068756,29.8863533 55.9350707,29.8398314 55.9745438,29.8003582 C56.0069682,29.7679338 56.0478511,29.743968 56.0845048,29.7157729 C56.1267974,29.6819387 56.1634511,29.6452851 56.2085633,29.6184997 L56.209973,29.6184997 L69.7591332,21.8183225 C70.1081548,21.61715 70.537916,21.61715 70.8869376,21.8183225 L84.434688,29.6184997 C84.4826197,29.6466949 84.5192734,29.6819387 84.561566,29.7143631 C84.5968099,29.7425582 84.6376928,29.7679338 84.6701172,29.7989485 C84.7095904,29.8398314 84.7377855,29.8863533 84.7716196,29.9314655 C84.7969952,29.9652996 84.8280098,29.9949045 84.8477464,30.0315581 C84.8801708,30.0865386 84.8984976,30.1471581 84.9210537,30.2063678 C84.9337415,30.2387922 84.9520683,30.268397 84.9605268,30.3022312 Z M82.7415717,45.4119907 L82.7415717,32.5493814 L78.0005639,35.2786681 L71.4508398,39.0497641 L71.4508398,51.9123734 L82.7429814,45.4119907 L82.7415717,45.4119907 Z M69.1938212,68.6800054 L69.1938212,55.8089376 L62.7512386,59.4883995 L44.3539292,69.9882585 L44.3539292,82.9805652 L69.1938212,68.6800054 Z M17.2584283,24.8817212 L17.2584283,68.6800054 L42.0955009,82.9791555 L42.0955009,69.9896682 L29.1201112,62.6462518 L29.1158819,62.6434323 L29.1102429,62.6406128 C29.0665405,62.6152372 29.0298868,62.5785835 28.9890039,62.5475689 C28.95376,62.5193738 28.9128771,62.4968177 28.8818625,62.4658031 L28.879043,62.4615738 C28.8423893,62.4263299 28.8170137,62.3826275 28.7859991,62.3431544 C28.757804,62.305091 28.7239699,62.2726666 28.7014138,62.2331934 L28.700004,62.2289642 C28.6746284,62.1866715 28.6591211,62.1359203 28.6407943,62.0879886 C28.6224675,62.0456959 28.5985016,62.0062228 28.5872236,61.9611106 L28.5872236,61.9597009 C28.573126,61.9061301 28.5703065,61.8497399 28.5646675,61.7947595 C28.5590285,61.7524668 28.5477504,61.7101741 28.5477504,61.6678815 L28.5477504,61.665062 L28.5477504,31.3821039 L21.9994361,27.6095981 L17.2584283,24.883131 L17.2584283,24.8817212 Z M29.6783744,16.4316467 L18.390462,22.9292099 L29.6755548,29.426773 L40.9620574,22.9278001 L29.6755548,16.4316467 L29.6783744,16.4316467 Z M35.5485963,56.9818542 L42.0969106,53.2121679 L42.0969106,24.8817212 L37.3559028,27.6110079 L30.8061788,31.3821039 L30.8061788,59.7125506 L35.5485963,56.9818542 Z M70.3230354,24.0993069 L59.0365328,30.5968701 L70.3230354,37.0944332 L81.6081282,30.5954603 L70.3230354,24.0993069 Z M69.1938212,39.0497641 L62.6440972,35.2786681 L57.9030894,32.5493814 L57.9030894,45.4119907 L64.4514037,49.1816769 L69.1938212,51.9123734 L69.1938212,39.0497641 Z M43.2233053,68.0357471 L59.7780642,58.5847462 L68.053329,53.8620652 L56.775285,47.3687313 L43.790027,54.8446648 L31.9551295,61.6580132 L43.2233053,68.0357471 Z" id="Shape" fill="#FFFFFF"></path>
        </g>
    </g>
</svg>