<?xml version="1.0" encoding="UTF-8"?>
<svg width="139px" height="19px" viewBox="0 0 139 19" version="1.1" xmlns="http://www.w3.org/2000/svg" xmlns:xlink="http://www.w3.org/1999/xlink">
    <title>laravel-valet</title>
    <g id="laravel-valet" stroke="none" stroke-width="1" fill="none" fill-rule="evenodd">
        <path d="M11.912,18 L11.912,15.456 L3.944,15.456 L3.944,0.912 L0.848,0.912 L0.848,18 L11.912,18 Z M17.903042,18.168 C18.927042,18.168 19.819042,17.924 20.579042,17.436 C21.0626784,17.1254545 21.4475048,16.7322975 21.7335213,16.2565289 L21.839,16.068 L21.839042,18 L24.791042,18 L24.791042,5.88 L21.839042,5.88 L21.839,7.715 L21.7335213,7.52429752 C21.4883643,7.11332231 21.1706122,6.76066116 20.7802651,6.46631405 L20.579042,6.324 C19.819042,5.82 18.927042,5.568 17.903042,5.568 C16.847042,5.568 15.915042,5.836 15.107042,6.372 C14.299042,6.908 13.671042,7.652 13.223042,8.604 C12.775042,9.556 12.551042,10.672 12.551042,11.952 C12.551042,13.216 12.771042,14.316 13.211042,15.252 C13.651042,16.188 14.279042,16.908 15.095042,17.412 C15.911042,17.916 16.847042,18.168 17.903042,18.168 Z M18.719042,15.864 C17.711042,15.864 16.927042,15.524 16.367042,14.844 C15.807042,14.164 15.527042,13.2 15.527042,11.952 C15.527042,10.672 15.807042,9.68 16.367042,8.976 C16.927042,8.272 17.711042,7.92 18.719042,7.92 C19.711042,7.92 20.479042,8.26 21.023042,8.94 C21.567042,9.62 21.839042,10.608 21.839042,11.904 C21.839042,13.168 21.567042,14.144 21.023042,14.832 C20.479042,15.52 19.711042,15.864 18.719042,15.864 Z M30.2291245,18 L30.2291245,11.448 C30.2291245,10.84 30.3451245,10.292 30.5771245,9.804 C30.8091245,9.316 31.1531245,8.928 31.6091245,8.64 C32.0651245,8.352 32.6531245,8.208 33.3731245,8.208 C33.9331245,8.208 34.4611245,8.312 34.9571245,8.52 L34.9571245,8.52 L35.0051245,5.784 C34.8451245,5.72 34.6611245,5.672 34.4531245,5.64 C34.2451245,5.608 34.0211245,5.592 33.7811245,5.592 C32.8531245,5.592 32.0211245,5.864 31.2851245,6.408 C30.7944578,6.77066667 30.4211245,7.25066667 30.1651245,7.848 L30.099,8.015 L29.8691245,5.88 L27.0371245,5.88 C27.1171245,6.44 27.1691245,7.012 27.1931245,7.596 C27.2171245,8.18 27.2291245,8.752 27.2291245,9.312 L27.2291245,9.312 L27.2291245,18 L30.2291245,18 Z M40.3232085,18.168 C41.3472085,18.168 42.2392085,17.924 42.9992085,17.436 C43.4828449,17.1254545 43.8676713,16.7322975 44.1536878,16.2565289 L44.259,16.068 L44.2592085,18 L47.2112085,18 L47.2112085,5.88 L44.2592085,5.88 L44.259,7.715 L44.1536878,7.52429752 C43.9085308,7.11332231 43.5907787,6.76066116 43.2004316,6.46631405 L42.9992085,6.324 C42.2392085,5.82 41.3472085,5.568 40.3232085,5.568 C39.2672085,5.568 38.3352085,5.836 37.5272085,6.372 C36.7192085,6.908 36.0912085,7.652 35.6432085,8.604 C35.1952085,9.556 34.9712085,10.672 34.9712085,11.952 C34.9712085,13.216 35.1912085,14.316 35.6312085,15.252 C36.0712085,16.188 36.6992085,16.908 37.5152085,17.412 C38.3312085,17.916 39.2672085,18.168 40.3232085,18.168 Z M41.1392085,15.864 C40.1312085,15.864 39.3472085,15.524 38.7872085,14.844 C38.2272085,14.164 37.9472085,13.2 37.9472085,11.952 C37.9472085,10.672 38.2272085,9.68 38.7872085,8.976 C39.3472085,8.272 40.1312085,7.92 41.1392085,7.92 C42.1312085,7.92 42.8992085,8.26 43.4432085,8.94 C43.9872085,9.62 44.2592085,10.608 44.2592085,11.904 C44.2592085,13.168 43.9872085,14.144 43.4432085,14.832 C42.8992085,15.52 42.1312085,15.864 41.1392085,15.864 Z M55.841291,18 L61.145291,5.904 L58.169291,5.904 L54.62,14.557 L51.137291,5.904 L47.993291,5.904 L53.225291,18 L55.841291,18 Z M67.4329727,18.168 C68.2969727,18.168 69.1489727,18.036 69.9889727,17.772 C70.8289727,17.508 71.5369727,17.136 72.1129727,16.656 L72.1129727,16.656 L71.2489727,14.592 C70.7049727,15.008 70.1169727,15.324 69.4849727,15.54 C68.8529727,15.756 68.2089727,15.864 67.5529727,15.864 C66.3529727,15.864 65.4569727,15.524 64.8649727,14.844 C64.351906,14.2546667 64.0611682,13.3799111 63.9927593,12.2197333 L63.987,12.096 L72.3289727,12.096 L72.3289727,11.64 C72.3289727,10.392 72.1089727,9.312 71.6689727,8.4 C71.2289727,7.488 70.6089727,6.788 69.8089727,6.3 C69.0089727,5.812 68.0489727,5.568 66.9289727,5.568 C65.7769727,5.568 64.7609727,5.836 63.8809727,6.372 C63.0009727,6.908 62.3129727,7.652 61.8169727,8.604 C61.3209727,9.556 61.0729727,10.656 61.0729727,11.904 C61.0729727,13.2 61.3289727,14.32 61.8409727,15.264 C62.3529727,16.208 63.0849727,16.928 64.0369727,17.424 C64.9889727,17.92 66.1209727,18.168 67.4329727,18.168 Z M69.704,10.488 L64.067,10.488 L64.0941324,10.3351243 C64.2034815,9.77545562 64.389375,9.3004497 64.6518129,8.91010651 L64.7689727,8.748 C65.2969727,8.068 66.0409727,7.728 67.0009727,7.728 C67.8969727,7.728 68.5809727,8.032 69.0529727,8.64 C69.4069727,9.096 69.6237227,9.7095 69.7032227,10.4805 L69.704,10.488 Z M77.0480132,18 L77.0480132,0.336 L74.0480132,0.336 L74.0480132,18 L77.0480132,18 Z M93.5968179,18 L101.180818,0.912 L98.0608179,0.912 L92.339,14.121 L86.6848179,0.912 L83.4448179,0.912 L91.0528179,18 L93.5968179,18 Z M105.079061,18.168 C106.103061,18.168 106.995061,17.924 107.755061,17.436 C108.238697,17.1254545 108.623524,16.7322975 108.90954,16.2565289 L109.015,16.068 L109.015061,18 L111.967061,18 L111.967061,5.88 L109.015061,5.88 L109.015,7.715 L108.90954,7.52429752 C108.664383,7.11332231 108.346631,6.76066116 107.956284,6.46631405 L107.755061,6.324 C106.995061,5.82 106.103061,5.568 105.079061,5.568 C104.023061,5.568 103.091061,5.836 102.283061,6.372 C101.475061,6.908 100.847061,7.652 100.399061,8.604 C99.951061,9.556 99.727061,10.672 99.727061,11.952 C99.727061,13.216 99.947061,14.316 100.387061,15.252 C100.827061,16.188 101.455061,16.908 102.271061,17.412 C103.087061,17.916 104.023061,18.168 105.079061,18.168 Z M105.895061,15.864 C104.887061,15.864 104.103061,15.524 103.543061,14.844 C102.983061,14.164 102.703061,13.2 102.703061,11.952 C102.703061,10.672 102.983061,9.68 103.543061,8.976 C104.103061,8.272 104.887061,7.92 105.895061,7.92 C106.887061,7.92 107.655061,8.26 108.199061,8.94 C108.743061,9.62 109.015061,10.608 109.015061,11.904 C109.015061,13.168 108.743061,14.144 108.199061,14.832 C107.655061,15.52 106.887061,15.864 105.895061,15.864 Z M117.405144,18 L117.405144,0.336 L114.405144,0.336 L114.405144,18 L117.405144,18 Z M125.591707,18.168 C126.455707,18.168 127.307707,18.036 128.147707,17.772 C128.987707,17.508 129.695707,17.136 130.271707,16.656 L130.271707,16.656 L129.407707,14.592 C128.863707,15.008 128.275707,15.324 127.643707,15.54 C127.011707,15.756 126.367707,15.864 125.711707,15.864 C124.511707,15.864 123.615707,15.524 123.023707,14.844 C122.51064,14.2546667 122.219902,13.3799111 122.151493,12.2197333 L122.146,12.096 L130.487707,12.096 L130.487707,11.64 C130.487707,10.392 130.267707,9.312 129.827707,8.4 C129.387707,7.488 128.767707,6.788 127.967707,6.3 C127.167707,5.812 126.207707,5.568 125.087707,5.568 C123.935707,5.568 122.919707,5.836 122.039707,6.372 C121.159707,6.908 120.471707,7.652 119.975707,8.604 C119.479707,9.556 119.231707,10.656 119.231707,11.904 C119.231707,13.2 119.487707,14.32 119.999707,15.264 C120.511707,16.208 121.243707,16.928 122.195707,17.424 C123.147707,17.92 124.279707,18.168 125.591707,18.168 Z M127.862,10.488 L122.226,10.488 L122.252866,10.3351243 C122.362215,9.77545562 122.548109,9.3004497 122.810547,8.91010651 L122.927707,8.748 C123.455707,8.068 124.199707,7.728 125.159707,7.728 C126.055707,7.728 126.739707,8.032 127.211707,8.64 C127.565707,9.096 127.782457,9.7095 127.862,10.4805 L127.862,10.488 Z M137.150747,18.168 C137.502747,18.168 137.834747,18.148 138.146747,18.108 C138.458747,18.068 138.774747,17.992 139.094747,17.88 L139.094747,17.88 L139.094747,15.504 C138.854747,15.568 138.638747,15.616 138.446747,15.648 C138.254747,15.68 138.054747,15.696 137.846747,15.696 C137.478747,15.696 137.146747,15.632 136.850747,15.504 C136.554747,15.376 136.318747,15.156 136.142747,14.844 C135.966747,14.532 135.878747,14.104 135.878747,13.56 L135.878747,13.56 L135.878,8.136 L139.094747,8.136 L139.094747,5.88 L135.878,5.88 L135.878747,1.92 L132.878747,2.928 L132.878,5.88 L130.550747,5.88 L130.550747,8.136 L132.878,8.136 L132.878747,13.704 C132.878747,15.048 133.2028,16.0993067 133.850907,16.85792 L133.994747,17.016 C134.738747,17.784 135.790747,18.168 137.150747,18.168 Z" id="LaravelValet" fill="#FFFFFF" fill-rule="nonzero"></path>
    </g>
</svg>